<mxfile host="app.diagrams.net" modified="2023-10-05T12:47:30.141Z" agent="Mozilla/5.0 (Windows NT 10.0; Win64; x64) AppleWebKit/537.36 (KHTML, like Gecko) Chrome/113.0.0.0 Safari/537.36" etag="OtXLVof4aFp0N8uY4HvC" version="22.0.2" type="github">
  <diagram name="Page-1" id="e7e014a7-5840-1c2e-5031-d8a46d1fe8dd">
    <mxGraphModel dx="1434" dy="718" grid="1" gridSize="10" guides="1" tooltips="1" connect="1" arrows="1" fold="1" page="1" pageScale="1" pageWidth="1169" pageHeight="826" background="none" math="0" shadow="0">
      <root>
        <mxCell id="0" />
        <mxCell id="1" parent="0" />
        <mxCell id="Kd5uq70KkGit1G8923zx-46" style="rounded=0;orthogonalLoop=1;jettySize=auto;html=1;exitX=0.5;exitY=1;exitDx=0;exitDy=0;shape=flexArrow;" edge="1" parent="1" source="Kd5uq70KkGit1G8923zx-41" target="Kd5uq70KkGit1G8923zx-42">
          <mxGeometry relative="1" as="geometry" />
        </mxCell>
        <mxCell id="Kd5uq70KkGit1G8923zx-41" value="创建根节点" style="rounded=0;whiteSpace=wrap;html=1;" vertex="1" parent="1">
          <mxGeometry x="470" y="210" width="135" height="70" as="geometry" />
        </mxCell>
        <mxCell id="Kd5uq70KkGit1G8923zx-47" style="rounded=0;orthogonalLoop=1;jettySize=auto;html=1;exitX=0.5;exitY=1;exitDx=0;exitDy=0;shape=flexArrow;" edge="1" parent="1" source="Kd5uq70KkGit1G8923zx-42" target="Kd5uq70KkGit1G8923zx-43">
          <mxGeometry relative="1" as="geometry" />
        </mxCell>
        <mxCell id="Kd5uq70KkGit1G8923zx-42" value="设置监听事件和可读可写事件的回调函数，相当于注册事件" style="rounded=0;whiteSpace=wrap;html=1;" vertex="1" parent="1">
          <mxGeometry x="470" y="330" width="140" height="70" as="geometry" />
        </mxCell>
        <mxCell id="Kd5uq70KkGit1G8923zx-51" style="edgeStyle=none;shape=flexArrow;rounded=0;orthogonalLoop=1;jettySize=auto;html=1;exitX=0.5;exitY=1;exitDx=0;exitDy=0;" edge="1" parent="1" source="Kd5uq70KkGit1G8923zx-43" target="Kd5uq70KkGit1G8923zx-45">
          <mxGeometry relative="1" as="geometry" />
        </mxCell>
        <mxCell id="Kd5uq70KkGit1G8923zx-43" value="事件循环---event_base_dispatch,相当于while(1) 在循环内部等待时间发生，若有是事件发生调用相应的回调函数" style="rounded=0;whiteSpace=wrap;html=1;" vertex="1" parent="1">
          <mxGeometry x="380" y="460" width="320" height="70" as="geometry" />
        </mxCell>
        <mxCell id="Kd5uq70KkGit1G8923zx-45" value="释放根节点 event_base_free" style="rounded=0;whiteSpace=wrap;html=1;align=left;" vertex="1" parent="1">
          <mxGeometry x="445" y="580" width="190" height="60" as="geometry" />
        </mxCell>
      </root>
    </mxGraphModel>
  </diagram>
</mxfile>
